<?xml version="1.0" encoding="UTF-8" standalone="no"?>
<!DOCTYPE svg PUBLIC "-//W3C//DTD SVG 1.1//EN" "http://www.w3.org/Graphics/SVG/1.1/DTD/svg11.dtd">
<svg width="100%" height="100%" viewBox="0 0 600 280" version="1.1" xmlns="http://www.w3.org/2000/svg" xmlns:xlink="http://www.w3.org/1999/xlink" xml:space="preserve" xmlns:serif="http://www.serif.com/" style="fill-rule:evenodd;clip-rule:evenodd;stroke-miterlimit:10;">
    <g>
        <g>
            <path d="M346.2,26.8L585.2,26.8C584.6,26.2 583.9,25.5 583.3,24.9L583.3,266.5C583.9,265.9 584.6,265.2 585.2,264.6L23.2,264.6C21,264.6 17.7,264 15.6,264.6C15.3,264.7 14.9,264.6 14.6,264.6C15.2,265.2 15.9,265.9 16.5,266.5L16.5,24.9C15.9,25.5 15.2,26.2 14.6,26.8L173.7,26.8C176.2,26.8 176.2,23 173.7,23L14.6,23C13.6,23 12.7,23.9 12.7,24.9L12.7,266.5C12.7,267.5 13.6,268.4 14.6,268.4L561.9,268.4C569.2,268.4 576.9,269.2 584.2,268.4L585.2,268.4C586.2,268.4 587.1,267.5 587.1,266.5L587.1,24.9C587.1,23.9 586.2,23 585.2,23L346.2,23C343.8,22.9 343.8,26.8 346.2,26.8Z" style="fill:rgb(255,193,34);fill-rule:nonzero;"/>
        </g>
    </g>
    <path d="M431.1,101.1C431.1,103.1 430.6,105 429.6,106.7C428,109.4 425.3,111.4 422.1,112C421.7,112.1 421.2,112.1 420.8,112.1L353,112.1C346.9,112.1 341.9,107.1 341.9,101C341.9,94.9 346.9,89.9 353,89.9C353.6,89.9 354.2,89.9 354.7,90C354.3,87.4 354.5,84.7 355.3,82C358.2,71.9 368.8,66.1 378.9,69C384,70.5 388,73.9 390.4,78.3C392.8,76.8 395.6,76 398.7,76C407.3,76 414.4,82.9 414.6,91.5C416.2,90.6 418.1,90 420.2,90C426.1,90 431.1,95 431.1,101.1Z" style="fill:white;fill-rule:nonzero;"/>
    <path d="M564.2,44.9C564.2,46.9 563.7,48.8 562.7,50.5C561.1,53.2 558.4,55.2 555.2,55.8C554.8,55.9 554.3,55.9 553.9,55.9L486.1,55.9C480,55.9 475,50.9 475,44.8C475,38.7 480,33.7 486.1,33.7C486.7,33.7 487.3,33.7 487.8,33.8C487.4,31.2 487.6,28.5 488.4,25.8C491.3,15.7 501.9,9.9 512,12.8C517.1,14.3 521.1,17.7 523.5,22.1C525.9,20.6 528.7,19.8 531.8,19.8C540.4,19.8 547.5,26.7 547.7,35.3C549.3,34.4 551.2,33.8 553.3,33.8C559.2,33.8 564.2,38.8 564.2,44.9Z" style="fill:white;fill-rule:nonzero;"/>
    <path d="M227.1,72.7C227.1,74.7 226.6,76.6 225.6,78.3C224,81 221.3,83 218.1,83.6C217.7,83.7 217.2,83.7 216.8,83.7L149,83.7C142.9,83.7 137.9,78.7 137.9,72.6C137.9,66.5 142.9,61.5 149,61.5C149.6,61.5 150.2,61.5 150.7,61.6C150.3,59 150.5,56.3 151.3,53.6C154.2,43.5 164.8,37.7 174.9,40.6C180,42.1 184,45.5 186.4,49.9C188.8,48.4 191.6,47.6 194.7,47.6C203.3,47.6 210.4,54.5 210.6,63.1C212.2,62.2 214.1,61.6 216.2,61.6C222.1,61.6 227.1,66.6 227.1,72.7Z" style="fill:white;fill-rule:nonzero;"/>
    <path d="M230.2,247.3L264.5,247.3" style="fill:none;fill-rule:nonzero;stroke:rgb(255,193,34);stroke-width:1.14px;"/>
    <path d="M230.2,247.9L264.7,247.9" style="fill:none;fill-rule:nonzero;stroke:rgb(255,193,34);stroke-width:1.14px;"/>
    <path d="M218,267.9L218,143.3L277.2,143.3L277.2,267.2" style="fill:rgb(255,193,34);fill-rule:nonzero;"/>
    <rect x="247.9" y="39" width="43.1" height="14.9" style="fill:rgb(98,212,212);"/>
    <path d="M249.8,76.5C249.8,99.1 248.8,117.5 248.1,117.5C247.4,117.5 246.4,99.1 246.4,76.5C246.4,53.9 247.4,35.5 248.1,35.5C248.7,35.5 249.8,53.9 249.8,76.5Z" style="fill:rgb(32,93,118);fill-rule:nonzero;"/>
    <circle cx="248" cy="36" r="2" style="fill:rgb(32,93,118);"/>
    <circle cx="248" cy="56.1" r="2.2" style="fill:rgb(32,93,118);"/>
    <path d="M339.5,61.5L290.3,61.5L290.3,46.6L339.5,46.6L326.7,54.4L339.5,61.5Z" style="fill:rgb(98,212,212);fill-rule:nonzero;"/>
    <g>
        <g transform="matrix(1,0,0,1,5.86899,-0.279476)">
            <text x="252.283px" y="50.835px" style="font-family:'Amaranth-Regular', 'Amaranth';font-size:12px;fill:rgb(32,93,118);">P&apos;tit</text>
        </g>
        <g transform="matrix(1,0,0,1,38.0087,6.70742)">
            <text x="252.283px" y="50.835px" style="font-family:'Amaranth-Regular', 'Amaranth';font-size:12px;fill:rgb(32,93,118);">Vill<tspan x="269.143px " y="50.835px ">a</tspan>ge</text>
        </g>
    </g>
    <ellipse cx="248" cy="84.1" rx="4.9" ry="1.3" style="fill:rgb(32,93,118);stroke:rgb(32,93,118);stroke-width:0.58px;"/>
    <path d="M248.2,83.9L282.6,143.5L213.7,143.5L230.9,113.7L248.2,83.9Z" style="fill:rgb(32,93,118);fill-rule:nonzero;stroke:rgb(32,93,118);stroke-width:0.58px;"/>
    <ellipse cx="247.9" cy="104.7" rx="15.7" ry="2.7" style="fill:rgb(32,93,118);stroke:rgb(32,93,118);stroke-width:0.58px;"/>
    <path d="M286.2,141.1C286.2,146.2 269.1,145.4 247.9,145.4C226.7,145.4 209.6,146.1 209.6,141.1C209.6,136.1 226.7,132 247.9,132C269.1,132 286.2,136.1 286.2,141.1Z" style="fill:rgb(32,93,118);fill-rule:nonzero;stroke:rgb(32,93,118);stroke-width:0.71px;"/>
    <g>
        <path d="M277.2,175L277.2,175.3C277.2,177.9 275.1,180.1 272.4,180.1C270.6,180.1 269.1,179.1 268.3,177.7C267.5,179.1 265.9,180.1 264.2,180.1C262.4,180.1 260.8,179.1 260,177.5C259.2,179 257.6,180 255.8,180C254,180 252.4,179 251.6,177.4C250.8,178.9 249.2,179.9 247.4,179.9C245.6,179.9 244,178.9 243.2,177.3C242.4,178.9 240.8,180 238.9,180C237.1,180 235.6,179 234.8,177.6C234,179 232.4,180 230.7,180C229,180 227.6,179.1 226.7,177.8C225.8,179 224.4,179.7 222.9,179.7C220.3,179.7 218.1,177.6 218.1,174.9L218.1,170.1L277.3,170.1L277.3,175L277.2,175Z" style="fill:rgb(234,110,47);fill-rule:nonzero;"/>
    </g>
    <rect x="230.7" y="193.7" width="34.7" height="58.6" style="fill:white;"/>
    <path d="M268.6,200.2L227.1,200.2L230.9,192.2L264.9,192.2L268.6,200.2Z" style="fill:rgb(255,87,116);fill-rule:nonzero;"/>
    <path d="M237,232.6L237,253.6" style="fill:none;fill-rule:nonzero;stroke:rgb(255,193,34);stroke-width:1.14px;"/>
    <path d="M244.1,232.8L244.1,253.8" style="fill:none;fill-rule:nonzero;stroke:rgb(255,193,34);stroke-width:1.14px;"/>
    <path d="M251.5,232.6L251.5,253.6" style="fill:none;fill-rule:nonzero;stroke:rgb(255,193,34);stroke-width:1.14px;"/>
    <path d="M258.7,232.6L258.7,253.6" style="fill:none;fill-rule:nonzero;stroke:rgb(255,193,34);stroke-width:1.14px;"/>
    <path d="M229.4,247.1L265.8,247.1" style="fill:none;fill-rule:nonzero;stroke:rgb(255,193,34);stroke-width:1.14px;"/>
    <path d="M229.8,238.1L266.2,238.1" style="fill:none;fill-rule:nonzero;stroke:rgb(255,193,34);stroke-width:1.14px;"/>
    <g>
        <path d="M236.7,231C236.9,230.7 237.2,230.7 237.4,231C237.6,231.3 237.9,231.8 238.1,232.1C238.3,232.4 238.1,232.7 237.8,232.7L236.5,232.7C236.1,232.7 236,232.4 236.2,232.1C236.2,231.9 236.5,231.4 236.7,231Z" style="fill:rgb(255,193,34);fill-rule:nonzero;"/>
        <path d="M236.7,231C236.9,230.7 237.2,230.7 237.4,231C237.6,231.3 237.9,231.8 238.1,232.1C238.3,232.4 238.1,232.7 237.8,232.7L236.5,232.7C236.1,232.7 236,232.4 236.2,232.1C236.2,231.9 236.5,231.4 236.7,231Z" style="fill:none;fill-rule:nonzero;stroke:rgb(255,193,34);stroke-width:0.7px;"/>
    </g>
    <g>
        <path d="M251.2,230.9C251.4,230.6 251.7,230.6 251.9,230.9C252.1,231.2 252.4,231.7 252.6,232C252.8,232.3 252.6,232.6 252.3,232.6L251,232.6C250.6,232.6 250.5,232.3 250.7,232C250.7,231.7 251,231.2 251.2,230.9Z" style="fill:rgb(255,193,34);fill-rule:nonzero;"/>
        <path d="M251.2,230.9C251.4,230.6 251.7,230.6 251.9,230.9C252.1,231.2 252.4,231.7 252.6,232C252.8,232.3 252.6,232.6 252.3,232.6L251,232.6C250.6,232.6 250.5,232.3 250.7,232C250.7,231.7 251,231.2 251.2,230.9Z" style="fill:none;fill-rule:nonzero;stroke:rgb(255,193,34);stroke-width:0.7px;"/>
    </g>
    <g>
        <path d="M243.7,230.9C243.9,230.6 244.2,230.6 244.4,230.9C244.6,231.2 244.9,231.7 245.1,232C245.3,232.3 245.1,232.6 244.8,232.6L243.5,232.6C243.1,232.6 243,232.3 243.2,232C243.3,231.7 243.6,231.2 243.7,230.9Z" style="fill:rgb(255,193,34);fill-rule:nonzero;"/>
        <path d="M243.7,230.9C243.9,230.6 244.2,230.6 244.4,230.9C244.6,231.2 244.9,231.7 245.1,232C245.3,232.3 245.1,232.6 244.8,232.6L243.5,232.6C243.1,232.6 243,232.3 243.2,232C243.3,231.7 243.6,231.2 243.7,230.9Z" style="fill:none;fill-rule:nonzero;stroke:rgb(255,193,34);stroke-width:0.7px;"/>
    </g>
    <g>
        <path d="M258.4,230.9C258.6,230.6 258.9,230.6 259.1,230.9C259.3,231.2 259.6,231.7 259.8,232C260,232.3 259.8,232.6 259.5,232.6L258.2,232.6C257.8,232.6 257.7,232.3 257.9,232C257.9,231.7 258.2,231.2 258.4,230.9Z" style="fill:rgb(255,193,34);fill-rule:nonzero;"/>
        <path d="M258.4,230.9C258.6,230.6 258.9,230.6 259.1,230.9C259.3,231.2 259.6,231.7 259.8,232C260,232.3 259.8,232.6 259.5,232.6L258.2,232.6C257.8,232.6 257.7,232.3 257.9,232C257.9,231.7 258.2,231.2 258.4,230.9Z" style="fill:none;fill-rule:nonzero;stroke:rgb(255,193,34);stroke-width:0.7px;"/>
    </g>
    <path d="M117.3,128.4C117.3,130.4 116.8,132.3 115.8,134C114.2,136.7 111.5,138.7 108.3,139.3C107.9,139.4 107.4,139.4 107,139.4L39.2,139.4C33.1,139.4 28.1,134.4 28.1,128.3C28.1,122.2 33.1,117.2 39.2,117.2C39.8,117.2 40.4,117.2 40.9,117.3C40.5,114.7 40.7,112 41.5,109.3C44.4,99.2 55,93.4 65.1,96.3C70.2,97.8 74.2,101.2 76.6,105.6C79,104.1 81.8,103.3 84.9,103.3C93.5,103.3 100.6,110.2 100.8,118.8C102.4,117.9 104.3,117.3 106.4,117.3C112.3,117.3 117.3,122.3 117.3,128.4Z" style="fill:white;fill-rule:nonzero;"/>
</svg>
